<?xml version="1.0" encoding="utf-8"?>
<!-- Generator: Adobe Illustrator 25.4.1, SVG Export Plug-In . SVG Version: 6.00 Build 0)  -->
<svg version="1.1" id="Layer_1" xmlns="http://www.w3.org/2000/svg" xmlns:xlink="http://www.w3.org/1999/xlink" x="0px" y="0px"
	 viewBox="0 0 512 512" style="enable-background:new 0 0 512 512;" xml:space="preserve">
<style type="text/css">
	.st0{fill:#47D7AC;}
</style>
<path class="st0" d="M222.9,513c-1.9-0.6-3.7-1.3-5.6-1.9c-13.3-4.7-22.2-17-22.4-31.3c-0.1-6.8,0-13.7,0-20.5s0-13.7,0-20.4
	c-0.4-0.4-0.5-0.7-0.8-0.8c-19.2-6.9-27-17.8-27-38.4c-0.1-14.7,0.1-29.4-4.3-43.7c-4.5-14.6-11.5-27.7-21.9-38.9
	c-23.8-25.6-39.2-55.4-42.8-90.2C91.4,162.2,115,110.3,168.8,74C232,31.3,316.3,40.9,369.6,95.3c1.6,1.6,3.1,3.6,3.7,5.7
	c1,3.4-0.5,6.3-3.6,8c-3.4,1.9-6.4,0.9-9.1-1.6c-6.4-5.6-12.4-11.7-19.2-16.7c-86.5-64-211.2-12.8-227.7,93.5
	c-7,44.9,4.7,84.9,35,118.7c22.4,25,34.1,53.4,33.4,86.9c-0.1,4.7-0.1,9.4,0.1,14c0.6,11.1,8.2,19.7,18.7,19.8
	c29.4,0.3,58.8,0.1,88.6,0.1c0-32.3,0-64.4,0-96.9c-22.2,0-44.5,0-67.3,0c0,1.9,0,3.7,0,5.5c0,21.7,0,43.4,0,65.1
	c0,5.4-2.5,8.5-6.8,8.8c-4.6,0.4-8-2.8-8.1-8.1c-0.2-6.2-0.1-12.4-0.1-18.5c0-28.1,0.1-56.1,0-84.2c0-6.3,1.2-11.9,6.6-16
	c0.8-0.6,1.6-1.9,1.6-2.9c-0.7-12.3-0.7-24.7-2.7-36.8c-1.6-9.6-7.6-17.7-14.4-24.8c-5.5-5.7-6.1-9.7-2.4-16.6
	c13.6-25.7,29.8-49.8,48.2-72.4c7.4-9,17.1-8.9,24.4,0.3c18.1,22.4,34,46.2,47.7,71.5c4,7.4,3.9,11-1.6,17.2
	c-15.4,17.7-19.5,38.6-17.6,61.2c0.1,1.2,0.9,2.6,1.8,3.3c5.1,4,6.4,9.4,6.4,15.6c-0.1,40.7,0,81.5,0,122.2c0,2,0,3.9,0,5.8
	c14.2,2.6,25.1-6.3,25.1-20.2c0.1-16.3-0.7-32.7,3.9-48.7c4.9-17.3,12.8-33,25.1-46.1c21-22.4,34.7-48.3,39.5-78.8
	c5.2-33.6-0.8-65-17.5-94.6c-0.5-0.9-1.1-1.7-1.5-2.6c-2.8-5-2.1-9.4,1.9-11.7c4.1-2.4,7.9-0.9,11.1,4.3
	c36,58,29.1,136.1-17.2,187.6c-13,14.4-23.9,29.9-27.4,49.1c-2.2,12-1.8,24.5-2.8,36.8c-0.5,6.3-0.7,12.8-2.7,18.6
	c-4,11.5-13,18.2-25.3,21.5c0,12.7,0.1,25.5-0.1,38.3c-0.1,4-0.3,8.1-1.4,11.9c-3.2,11.4-10.7,19-21.9,22.9
	c-1.5,0.5-3.1,1.1-4.6,1.7C267,513,245,513,222.9,513z M264.9,146.3c-0.5,0.2-0.9,0.4-1.4,0.6c0,1.8,0,3.6,0,5.5c0,17.5,0,35,0,52.6
	c0,2,0.5,4.5-0.5,5.9c-1.7,2.3-4.2,4.8-6.8,5.4c-3.5,0.8-6.3-1.7-7.2-5.4c-0.4-1.8-0.4-3.6-0.4-5.5c0-18,0-36,0-54.1
	c0-1.7-0.2-3.4-0.3-6.4C233.5,164,221.2,183,210.5,203c-0.5,1,0,3.2,0.8,4.2c9.1,10.4,15,22.4,17.9,35.9c0.3,1.3,2.2,3.1,3.4,3.1
	c16.7,0.2,33.3,0.1,49.6,0.1c2.8-7.3,4.9-14.4,8.1-20.8c3.3-6.5,7.8-12.3,11.5-18.7c0.6-1,0.2-3.2-0.5-4.4
	c-6.6-11-13.1-22.1-20-32.9C276,161.5,270.3,154,264.9,146.3z M210.4,473.4c-2,15.8,5.7,24.6,21,24.6c16.9,0,33.7,0,50.6,0
	c12.3,0,19.9-7.7,20-20c0.1-8,0.1-16,0.1-24c0-4.9,0-9.9,0-14.8c-31,0-61.3,0-91.8,0c0,6.4,0,12.5,0,19.2c2.2,0,4.2,0,6.1,0
	c20,0,40.1,0,60.1,0c1.8,0,3.7,0,5.5,0.4c4,0.8,6.1,3.6,5.9,7.5c-0.2,3.7-2.3,6.2-6.1,6.9c-1.8,0.3-3.7,0.3-5.5,0.3
	c-20,0-40.1,0-60.1,0C214.2,473.4,212.3,473.4,210.4,473.4z M222.5,291.7c0,6.7,0,12.9,0,19.3c22.6,0,44.8,0,67,0
	c0-6.7,0-12.9,0-19.3C267,291.7,245,291.7,222.5,291.7z M281.3,276.3c0-5,0-9.9,0-14.8c-17.1,0-33.8,0-50.6,0c0,5.1,0,9.9,0,14.8
	C247.5,276.3,264,276.3,281.3,276.3z"/>
<path class="st0" d="M259,0c3.7,3,4.8,6.8,4.4,11.4c-0.3,3.6,0.1,7.3-0.3,11c-0.4,4.1-3.1,6.3-7,6.4c-3.7,0.1-6.9-1.8-7.2-5.6
	c-0.5-5.9-0.4-12,0.1-17.9c0.2-1.9,2.6-3.6,3.9-5.4C255,0,257,0,259,0z"/>
<path class="st0" d="M115.5,59.1c2.4,1,4.3,1.2,5.4,2.2c3.8,3.6,7.7,7.4,11,11.4c2.5,3.1,2,6.6-0.8,9.4s-6.5,3.2-9.5,0.7
	c-4.1-3.5-8-7.5-11.3-11.8c-1.2-1.7-1.2-5.3-0.3-7.3C111,61.8,113.7,60.6,115.5,59.1z"/>
<path class="st0" d="M385,84.7c-1.4-1-4.3-2.1-5.1-4.1c-0.9-2.2-1-5.9,0.3-7.7c3.1-4.3,7-8,10.9-11.5c2.8-2.5,6.7-2.6,9,0.2
	c1.7,2,3.2,6.6,2.1,8.2c-3.7,5.2-8.6,9.5-13.1,14C388.5,84.3,387.2,84.2,385,84.7z"/>
<path class="st0" d="M133.4,345.6c-0.1,0.5,0,1.5-0.5,2c-4.6,4.9-9,10.1-14.1,14.4c-1.3,1.1-6.2-0.3-7.7-2s-2.3-6.3-1.1-7.9
	c3.4-4.8,7.6-9.3,12.3-12.9C126.6,335.7,133.3,339.7,133.4,345.6z"/>
<path class="st0" d="M403.5,356.4c-1.3,1.5-2.5,4.4-4.6,5.2c-2.2,0.9-5.9,0.8-7.7-0.6c-4.2-3.2-7.8-7.2-11.2-11.3
	c-2.4-2.9-2.4-6.8,0.6-8.9c2.1-1.6,6.8-3,8.3-1.8c5,3.9,9.2,8.9,13.5,13.6C403,353.2,402.9,354.5,403.5,356.4z"/>
<path class="st0" d="M65.4,218.6c-2.5,0-5,0.2-7.5,0c-4.1-0.3-6.4-2.7-6.7-6.7c-0.3-4.2,1.8-7.4,6-7.8c5.2-0.5,10.6-0.5,15.9-0.1
	c4.1,0.4,6.5,3.4,6.3,7.6c-0.3,4.1-2.8,6.7-7,7C70.1,218.7,67.8,218.6,65.4,218.6L65.4,218.6z"/>
<path class="st0" d="M446.8,218.6c-2.5,0-5,0.2-7.5,0c-4.1-0.3-6.4-2.8-6.8-6.7s1.6-7.2,5.6-7.6c5.7-0.6,11.6-0.6,17.3,0.1
	c3.9,0.4,5.7,3.8,5.3,7.8c-0.4,3.8-2.6,6.1-6.4,6.4C451.8,218.8,449.2,218.6,446.8,218.6L446.8,218.6z"/>
</svg>
