<?xml version="1.0" encoding="utf-8"?>
<!-- Generator: Adobe Illustrator 25.4.1, SVG Export Plug-In . SVG Version: 6.00 Build 0)  -->
<svg version="1.1" id="Layer_1" xmlns="http://www.w3.org/2000/svg" xmlns:xlink="http://www.w3.org/1999/xlink" x="0px" y="0px"
	 viewBox="0 0 512 512" style="enable-background:new 0 0 512 512;" xml:space="preserve">
<style type="text/css">
	.st0{fill:#47D7AC;}
</style>
<path class="st0" d="M56.3,396.6c12.4,34.1,24.6,67.6,37,101.9c-5.2,1.9-10.1,3.7-15.7,5.8c-11.5-31.5-22.8-62.6-34.3-94
	c-13.3,4.8-26.2,9.5-39.4,14.2c-2-5.4-3.8-10.3-5.7-15.7c11.5-4.2,22.5-8.3,33.7-12.3c3.2-1.1,5.6-2,5.8-6.5
	c0.1-2.3,3.3-5.5,5.8-6.5c30.9-11.5,61.9-22.8,92.9-34c5.8-2.1,9.5-0.1,12.1,5.7c0.5,1.1,1,2.2,1.6,3.6c1.7-1.1,3.1-2,4.6-2.8
	c27.2-16.4,56.1-28.3,88.4-27.1c16.5,0.6,32.9,4.1,49.2,6.8c22.9,3.8,45.7,8.3,68.6,12.1c14.2,2.4,24,9.7,28.8,23.5
	c0.2,0.5,0.6,0.8,1.1,1.6c14.5-5.3,29.1-10.5,43.6-15.8c10.7-3.9,21.3-8,32-11.6c19.1-6.4,39.2,4.4,44.1,23.4
	c4.3,16.8-4.8,33.5-22.2,40c-28.8,10.6-57.7,21.1-86.6,31.6c-21.8,7.9-43.6,15.9-65.4,23.8c-16.2,5.9-32.9,7.3-50,6.2
	c-18.1-1.1-36.4-2.7-54.3-1.3c-12.7,1-25.1,6.6-38,10.3c1.2,3.5,2,5.7,2.7,8c1.7,5.5,0.2,9.4-5,11.5c-8.9,3.5-18,6.6-27.6,10.2
	c-1.9-5.2-3.8-10.2-5.8-15.6c6.7-2.5,13-4.9,20.1-7.5c-14.4-39.5-28.6-78.7-43-118.3C108.7,377.5,82.7,387,56.3,396.6z M263.8,382.3
	c2.4,0.3,4.5,0.5,6.5,0.9c27.9,4.9,55.7,9.8,83.6,14.7c10.3,1.8,19-4,20.6-13.7c1.5-9.3-4.7-17.4-14.9-19.3
	c-31.1-5.6-62.3-10.6-93.3-16.7c-39.3-7.8-73.8,3.8-106.3,24.5c-3.1,2-3.9,4-2.5,7.7c5.4,14,10.4,28.2,15.5,42.3
	c5.1,13.9,10.1,27.8,15.3,42c2.9-1,5.3-1.8,7.7-2.8c17.9-7.1,36.1-12,55.6-10.6c12,0.9,24.1,1.6,36.1,2.6
	c14.8,1.3,29.3-0.2,43.3-5.3c35.6-13,71.2-25.9,106.7-38.8c15.2-5.5,30.5-11,45.7-16.7c7.7-2.9,11.6-9.3,11.1-17.1
	c-0.5-6.8-5.3-13-12.5-14.3c-3.9-0.7-8.5-0.5-12.2,0.9c-25.5,9-50.9,18.3-76.2,27.8c-2.1,0.8-4.2,2.9-5.2,5
	c-6.7,14.1-20.6,22-35.9,19.5c-21.7-3.6-43.3-7.5-65-11.3c-8.7-1.5-17.4-3.1-26.5-4.7C261.9,392.9,262.8,387.8,263.8,382.3z"/>
<path class="st0" d="M195.2,90.1c0-9.1-0.1-17.5,0-25.9c0.5-29.8,21.8-53.3,52-57.7C273.9,2.7,301.6,20,309.5,47
	c2.9,9.8,2.3,20.7,3.1,31.1c0.3,3.8,0,7.6,0,12c10.5,0,20.6,0,30.7,0c8.6,0,11.3,2.7,11.3,11.2c0,10,0,19.9,0,30.3
	c-5.5,0-10.8,0-16.6,0c0-8,0-16.1,0-24.5c-8.5,0-16.5,0-25.1,0c0,8,0,16.1,0,24.5c-5.9,0-11.2,0-16.9,0c0-8.1,0-16.1,0-24.4
	c-28.1,0-55.7,0-84,0c0,8,0,16.1,0,24.5c-5.7,0-10.9,0-16.7,0c0-8,0-16.1,0-24.6c-8.7,0-16.8,0-25.1,0c0,50.1,0,100,0,150.5
	c38.8,0,77.7,0,116.9,0c0,5.9,0,11.2,0,16.9c-38.8,0-77.6,0-117,0c0,3.6-0.4,6.9,0.1,10c0.6,4.6,4.2,6.9,10.2,6.9
	c33.6,0,67.1,0,100.7,0c1.9,0,3.8,0,6.1,0c0,5.6,0,10.9,0,16.6c-1.7,0.1-3.4,0.2-5.1,0.2c-33.6,0-67.1,0-100.7,0
	c-18,0-28.1-10.2-28.1-28.4c0-59.3,0-118.5,0-177.8c0-9.7,2.4-12.1,12-12.1C175,90.1,184.8,90.1,195.2,90.1z M212.8,89.7
	c27.5,0,55.1,0,83,0c0-9.1,0.2-17.8,0-26.5c-0.7-21-17.5-38.5-38.5-40.1c-21.4-1.7-41.1,12.8-44.2,34
	C211.5,67.6,212.8,78.6,212.8,89.7z"/>
<path class="st0" d="M388.5,148.9c24.1,0,48.2,0,72.4,0c8.6,0,11.3,2.7,11.3,11.3c0,40.4,0,80.8,0,121.2c0,16.6-10.5,27.1-27.3,27.1
	c-37.8,0-75.5,0-113.3,0c-16.7,0-27.3-10.5-27.3-27.1c0-40.4,0-80.8,0-121.2c0-8.6,2.7-11.2,11.3-11.2
	C339.9,148.9,364.2,148.9,388.5,148.9z M321.3,257.7c44.9,0,89.3,0,133.6,0c0-30.8,0-61.3,0-91.7c-44.7,0-89.1,0-133.6,0
	C321.3,196.6,321.3,226.9,321.3,257.7z M321.1,275c0,2.9-0.1,5.4,0,7.8c0.3,5.5,3.4,8.8,9,8.8c38.8,0.1,77.5,0.1,116.3,0
	c5.6,0,8.7-3.3,8.9-8.8c0.1-2.5,0-5.1,0-7.8C410.4,275,366.1,275,321.1,275z"/>
<path class="st0" d="M346.3,182.7c5.9,0,11.1,0,16.8,0c0,4.9,0,9.6,0,14.3c0,16.1,10.6,27.5,25.3,27.4c14.7-0.1,25-11.5,25.1-27.7
	c0-4.5,0-9,0-13.9c5.6,0,10.9,0,16.6,0c0.5,14.4,1.5,28.6-7.9,41.1c-10.8,14.4-29.1,20.7-46.1,15.3c-17.4-5.4-29.3-21-29.7-39
	C346.2,194.6,346.3,188.8,346.3,182.7z"/>
</svg>
