<?xml version="1.0" encoding="utf-8"?>
<!-- Generator: Adobe Illustrator 25.4.1, SVG Export Plug-In . SVG Version: 6.00 Build 0)  -->
<svg version="1.1" id="Layer_1" xmlns="http://www.w3.org/2000/svg" xmlns:xlink="http://www.w3.org/1999/xlink" x="0px" y="0px"
	 viewBox="0 0 512 512" style="enable-background:new 0 0 512 512;" xml:space="preserve">
<style type="text/css">
	.st0{fill:#47D7AC;}
</style>
<path class="st0" d="M4.8,399.7c0-121,0-242,0-363c2.7-5.8,4.7-12.1,8.2-17.4c5.4-8.1,14-11.7,23.2-14c146.5,0,293,0,439.5,0
	c9.7,2.4,18.6,6.5,24.1,15.1c3.2,5,4.9,10.8,7.3,16.3c0,121,0,242,0,363c-2.4,3.9-5.8,5-10.3,5c-16-0.2-32-0.1-48-0.1
	c-22.4,0-44.8,0-67.1,0.1c-1.5,0-3,1.2-4.5,1.8c0.6,1.3,1,2.9,2,3.9c4.3,4.5,8.8,8.8,13.1,13.2c4.2,4.3,4.5,7.3,1.1,12.1
	c-11.2,15.9-24.7,29.5-40.6,40.7c-5.5,3.9-8,3.7-12.8-1.1c-5.2-5.2-10.3-10.4-14.8-14.9c-10.9,4.2-20.9,8.1-30.8,12.2
	c-1.2,0.5-2.4,2.6-2.5,3.9c-0.3,6-0.1,12.1-0.1,18.1c0,7.6-1.6,9.4-9.1,10.7c-5,0.8-9.9,1.5-14.9,2.3c-8.5,0-17,0-25.5,0
	c-5-0.7-10-1.4-14.9-2.3c-7.5-1.3-9.1-3.1-9.1-10.7c0-6,0.1-12.1-0.1-18.1c0-1.3-0.9-3.4-2-3.8c-10.2-4.2-20.5-8.1-31.5-12.3
	c-4.8,4.9-10,10.3-15.3,15.6c-3.9,3.9-6.9,4.1-11.3,1c-16.3-11.5-30.3-25.3-41.7-41.7c-3-4.3-2.7-7.5,1.1-11.3
	c4.2-4.3,8.6-8.5,12.8-12.9c1.2-1.3,1.8-3.1,2.7-4.6c-1.8-0.6-3.6-1.8-5.5-1.8c-37.4-0.1-74.8-0.1-112.2,0
	C10.7,404.7,7.2,403.6,4.8,399.7z M133.1,268.4c-4.8-4.7-10-9.8-15.2-15c-4.4-4.4-4.7-7.5-1.2-12.5c11.2-15.9,24.8-29.5,40.7-40.7
	c5.2-3.6,7.8-3.4,12.4,1.1c4.5,4.5,8.9,9.1,13.6,13.4c1,0.9,3.5,1.2,4.8,0.7c8.8-3.4,17.4-7.4,26.3-10.7c2.9-1.1,3.7-2.5,3.6-5.3
	c-0.1-6.2-0.1-12.4,0-18.6c0.1-6,1.7-8,7.5-9c19.5-3.5,39-3.5,58.5,0c5.8,1,7.4,3,7.5,9c0.1,6.4,0.1,12.8,0,19.1
	c0,2.5,0.8,3.7,3.2,4.6c9,3.5,17.7,7.4,26.7,10.9c1.4,0.5,3.8,0.2,4.8-0.7c4.9-4.5,9.6-9.4,14.3-14.1c3.4-3.4,7-3.8,11-1
	c16.5,11.6,30.5,25.6,42.1,42.1c2.8,4,2.3,7.6-1.1,11c-2.7,2.6-5.4,5.3-8,8c-2.7,2.8-6.8,5.3-7.5,8.6c-0.6,2.7,2.8,6.3,4.2,9.6
	c3.1,7.5,6,15.1,9,22.7c3.8,0,7.5,0,11.3,0s7.5-0.1,11.3,0c5.3,0.1,7.9,2.2,8.6,7.4c0.9,6.5,1.9,13,2.1,19.5
	c0.3,10.5,0.1,21.1,0.1,31.6c12.7,0,25.8,0,38.9,0c0-74.2,0-148.1,0-222c-138,0-275.7,0-413.8,0c0,2.2,0,4.2,0,6.1
	c0,53.6,0,107.3,0,160.9c0,1.6,0.2,3.3-0.1,4.9c-0.7,3.8-3.1,6.2-7.1,6.3c-4.2,0.1-6.7-2.4-7.4-6.4c-0.2-1.3-0.1-2.6-0.1-3.9
	c0-57.6,0-115.1,0-172.7c0-7.9,2.3-10.2,10.2-10.2c141.1,0,282.2,0,423.3,0c7.6,0,9.9,2.4,9.9,9.9c0,77.3,0,154.7,0,232
	c0,7.9-2.3,10.2-10.2,10.2c-24,0-48.1,0-72.1,0c-1.8,0-3.5,0-5.4,0c-1.6,5-3.1,9.6-4.7,14.3c35.9,0,71.4,0,106.8,0
	c0-93.9,0-187.3,0-280.8c-157.6,0-315,0-472.2,0c0,93.9,0,187.5,0,280.9c35.1,0,69.8,0,104.8,0c-1.7-5-3.2-9.6-4.8-14.3
	c-2.1,0-3.9,0-5.6,0c-23.4,0-46.8,0-70.1,0c-7.5,0-9.9-2.4-9.9-10c0-8.2,0-16.3,0-24.5c0-6.1,2.7-9.6,7.4-9.6c4.6,0,7.3,3.5,7.4,9.6
	c0,6.5,0,13,0,19.5c13,0,25.5,0,38.1,0c-1.9-17-1.7-33.6,1.1-50.2c1.1-6.4,3.2-8.3,9.8-8.4c7.3,0,14.7,0,21.3,0
	C124,290.3,128.4,279.7,133.1,268.4z M348.1,213.7c-6.2,6.4-11.4,11.6-16.5,16.9c-3.3,3.5-6.9,3.9-11,1.4
	c-11.3-7-23.5-12.1-36.5-15.1c-4.9-1.1-7.2-4.1-7.1-9.1c0.1-6-0.1-12.1,0.1-18.1c0.1-3-0.7-4.7-4-4.7c-12.1,0-24.1,0-36.2,0
	c-3.2,0-4.1,1.6-4,4.6c0.2,5.7,0.1,11.4,0,17.2c-0.1,6.9-1.4,8.7-8,10.3c-12.3,3-23.8,7.9-34.7,14.4c-5.7,3.4-7.9,3.1-12.5-1.5
	c-5.1-5-10.1-10.2-15.9-16.1c-10.7,10.7-20.9,20.9-31.5,31.6c5.9,5.7,10.8,10.5,15.7,15.3c5.1,5.1,4.9,7,1.9,13.3
	c-5.2,11.2-9.9,22.6-14.3,34.2c-2.5,6.6-3.5,8.1-10.7,8.1c-7,0-13.9,0-20.9,0c-2,15.1-2.2,29.5,0.1,44.1c7.5,0,14.5,0,21.5,0
	c6.2,0,8.2,1.5,9.7,7.4c3.1,12.6,8.1,24.5,14.8,35.6c3.2,5.2,2.8,7.7-1.6,12.1c-5.1,5-10.3,9.9-16.4,15.7
	c10.9,10.9,21.1,21.1,31.7,31.6c6.1-6.1,11.3-11.3,16.4-16.6c3.3-3.4,6.8-4.2,11-1.6c11.5,7.1,23.8,12.2,36.9,15.3
	c4.7,1.1,6.8,4,6.8,8.7c0,6.2,0.1,12.4,0,18.6c-0.1,2.8,0.7,4.4,3.7,4.4c12.2,0,24.5,0,36.7,0c3,0,3.8-1.5,3.8-4.3
	c-0.1-5.9-0.1-11.8,0-17.7c0.1-6.5,1.5-8.5,7.7-10c12.5-3,24.1-8,35.1-14.6c5.4-3.3,7.7-3,12.1,1.4c5.1,5.1,10,10.3,15.2,15.6
	c12.4-9.2,22.7-19.5,31.6-31.7c-5.2-5.1-10.2-9.8-15-14.7c-4.9-4.9-5.3-7.1-1.8-12.9c6.6-11,11.4-22.7,14.5-35.2
	c1.5-5.9,3.5-7.4,9.7-7.4c7.2,0,14.3,0,22.3,0c0-14.9,0-29.3,0-44.1c-8,0-15,0-22,0c-6.5,0-8.4-1.5-10-7.6
	c-3.1-12.4-8-24.2-14.6-35.1c-3.3-5.5-3-7.8,1.6-12.5c5-5,10.2-10,16.1-15.8C369,234.6,358.8,224.5,348.1,213.7z M19.8,93.3
	c157.7,0,315,0,472.6,0c0-17.8,0.3-35.3-0.1-52.8c-0.3-11.4-10.1-20.4-21.7-20.4c-44.5-0.1-88.9-0.2-133.4,0
	C319.7,20.2,305,32.8,302,50c-1,5.7-0.8,11.7-0.8,17.6c-0.1,9.5-1.9,11.4-11.5,11.4c-88,0-175.9,0-263.9,0c-1.9,0-3.8,0-6,0
	C19.8,83.9,19.8,88.4,19.8,93.3z M301.8,20.1c-2.7,0-4,0-5.3,0c-84.3,0-168.6,0-252.9,0c-1.1,0-2.3,0-3.4,0.1
	c-9,0.6-17.8,6.6-19.4,15.4c-1.6,9.3-1.2,19-1.7,28.3c89.8,0,178.4,0,267.4,0C285.4,47.3,289.7,32.8,301.8,20.1z"/>
<path class="st0" d="M36.2,5.3C27,7.6,18.4,11.2,13,19.3c-3.5,5.3-5.5,11.6-8.2,17.4c0-10.5,0-20.9,0-31.4
	C15.3,5.3,25.8,5.3,36.2,5.3z"/>
<path class="st0" d="M507.2,36.7c-2.4-5.4-4.2-11.3-7.3-16.3c-5.5-8.7-14.4-12.7-24.1-15.1c10.5,0,20.9,0,31.4,0
	C507.2,15.8,507.2,26.3,507.2,36.7z"/>
<path class="st0" d="M144.7,338.4c0-60.9,49.6-110.4,110.5-110.3c60.7,0.1,109.9,49.3,110.2,110.1S316,448.7,255.2,448.8
	C194.2,448.8,144.7,399.3,144.7,338.4z M159.4,338.3c-0.1,52.5,42.6,95.6,95.1,95.8c52.9,0.2,95.7-42.3,96.1-95.3
	c0.4-52.6-42.6-95.9-95.3-96C202.4,242.7,159.5,285.4,159.4,338.3z"/>
<path class="st0" d="M360,56.9c0,12.1-10.1,22.1-22.2,22s-22-10.2-21.9-22.4c0.1-11.9,10-21.7,22-21.8C350,34.8,360,44.7,360,56.9z
	 M338,49.5c-3.9,0-7.2,3.2-7.4,7c-0.2,4.1,3.2,7.6,7.3,7.6c3.9,0,7.2-3.2,7.4-7C345.4,53.1,342,49.5,338,49.5z"/>
<path class="st0" d="M418.8,57.2c-0.2,12.1-10.4,21.9-22.6,21.7c-12.1-0.3-21.8-10.5-21.5-22.7C375,44.3,385,34.7,397,34.8
	C409.2,34.9,419,45.1,418.8,57.2z M396.8,64.2c3.9,0,7.2-3.2,7.3-7.1c0.2-4.1-3.2-7.6-7.3-7.6c-3.9,0-7.2,3.2-7.3,7.1
	C389.3,60.7,392.7,64.2,396.8,64.2z"/>
<path class="st0" d="M433.6,56.7c0.1-12.1,10.1-22.1,22.3-21.9c12.1,0.1,22,10.2,21.8,22.4c-0.2,11.9-10.1,21.7-22.1,21.7
	C443.5,78.9,433.5,68.9,433.6,56.7z M463,56.9c0-3.9-3.2-7.2-7.1-7.3c-4.1-0.2-7.6,3.2-7.6,7.3c0,3.9,3.2,7.2,7.1,7.3
	C459.4,64.3,463,60.9,463,56.9z"/>
<path class="st0" d="M291.7,338.3c0.1,20.3-16.3,36.9-36.6,36.9c-20.3,0.1-36.8-16.3-36.9-36.6c-0.1-20.3,16.3-36.8,36.6-36.9
	C275.2,301.6,291.6,318,291.7,338.3z M277,338.4c0-12.2-10-22.1-22.2-22c-12,0.1-21.7,9.8-21.8,21.9c-0.1,12.2,9.7,22.2,21.9,22.2
	C267.2,360.5,277.1,350.6,277,338.4z"/>
</svg>
