<?xml version="1.0" encoding="utf-8"?>
<!-- Generator: Adobe Illustrator 25.4.1, SVG Export Plug-In . SVG Version: 6.00 Build 0)  -->
<svg version="1.1" id="Layer_1" xmlns="http://www.w3.org/2000/svg" xmlns:xlink="http://www.w3.org/1999/xlink" x="0px" y="0px"
	 viewBox="0 0 512 512" style="enable-background:new 0 0 512 512;" xml:space="preserve">
<style type="text/css">
	.st0{fill:#47D7AC;}
</style>
<path class="st0" d="M148.4,509c-2.3-0.8-4.7-1.4-7-2.3c-14.6-5.4-24.4-18.6-24.5-34.7c-0.3-32-0.1-63.9-0.1-95.9
	c0-5.4,3-8.7,7.5-8.7c4.5,0,7.4,3.1,7.4,8.7c0,30.6,0,61.3,0,91.9c0,17.3,8.7,26.1,25.9,26.1c97.4,0,194.8,0,292.3,0
	c17,0,25.7-8.7,25.7-25.7c0-108.3,0-216.7,0-325c0-1.8,0-3.6,0-6c-2.2,0-3.9,0-5.7,0c-25.8,0-51.7-0.1-77.5,0
	c-15.1,0.1-26.4-6-34.5-18.7c-1-1.6-4-2.7-6-2.7c-34-0.2-67.9-0.1-101.9-0.1c-22,0-44.1,0-66.1,0c-14.3,0-20.7-6.4-20.7-20.5
	c0-10.6-0.1-21.2,0-31.8c0.1-11.9,7-18.7,18.9-18.8c21.5,0,43.1,0,64.6,0c6.2,0,9.6,2.7,9.6,7.5s-3.5,7.4-9.7,7.4
	c-20.9,0-41.8,0.1-62.6-0.1c-4.6-0.1-6.1,1.4-6,5.9c0.3,10.1,0.2,20.2,0,30.3c-0.1,3.9,1.3,5.2,5.2,5.2c55.5-0.1,111,0,166.5-0.1
	c1,0,1.9-0.2,3.2-0.3c0-13.5,0-26.9,0-41c-1.7,0-3.4,0-5.2,0c-19.7,0-39.4,0-59.1,0c-1.2,0-2.3,0-3.5,0c-5.4-0.1-8.7-2.9-8.7-7.4
	s3.2-7.4,8.6-7.4c20.7,0,41.4,0,62.1,0c1.8,0,3.6,0,5.7,0c0-9.9,0-19.5,0-29.8c-1.7,0-3.4,0-5.1,0c-63.8,0-127.6,0-191.4,0
	c-15.2,0-24.5,9.2-24.5,24.4c-0.1,27.3,0,54.7,0,82c0,1.5,0,2.9,0,4.9c5.5,0,10.6-0.1,15.7,0c7.5,0.1,11.7,3.6,10.9,10.9
	c-0.9,8.5,1.7,13.4,9.9,16.2c4.4,1.5,8.3,4.8,12.2,7.6c2.1,1.5,3.8,2.1,6.1,0.4c2.4-1.7,5.1-3.1,7.7-4.5c5.3-2.7,10.3-1.6,13.3,3.5
	c8.3,14.1,16.5,28.3,24.5,42.6c2.9,5.2,1.7,10.8-3.8,13.1c-8.8,3.8-11.9,9.3-9.8,18.7c0.9,4-0.1,8.6-0.6,12.8
	c-0.3,2.7,0.3,4.3,2.9,5.5c2.7,1.3,5.2,2.8,7.7,4.5c4.8,3.2,6.4,7.9,3.6,12.9c-8.1,14.4-16.4,28.8-24.8,43
	c-2.9,4.8-8.5,6.7-12.8,3.3c-8.1-6.5-14.7-5.3-21.9,1.1c-2.9,2.5-6.8,4-10.5,5.5c-3,1.2-4,2.9-3.7,6c0.2,2.5,0.1,5,0,7.5
	c-0.2,6.9-3.5,10.5-10.4,10.5c-15.7,0.1-31.5,0.1-47.2,0c-7.1-0.1-11.4-3.7-10.6-10.8c1-8.8-2.1-13.6-10.3-16.5
	c-4.3-1.5-8-4.6-11.7-7.3c-2.2-1.7-3.9-1.8-6.2-0.3c-2.5,1.7-5.1,3.1-7.7,4.5c-5.1,2.6-10.1,1.5-13-3.3c-8.4-14.2-16.7-28.6-24.8-43
	c-2.8-4.9-1.6-10.8,3.6-12.8c9.6-3.7,11.9-10,10.2-19.4c-0.8-4.1,0.5-8.6,0.4-12.9c-0.1-1.6-1.1-3.6-2.3-4.6
	c-2.4-1.9-5.4-3.1-8.1-4.9c-5-3.3-6.5-8.2-3.5-13.3c8-14.1,16.1-28.2,24.3-42.2c3.2-5.4,8.6-7.3,13.5-3.6c7.7,5.8,14,5.5,21-0.9
	c2.8-2.6,6.8-4.2,10.5-5.6c3.4-1.3,4.2-3.2,4.2-6.7c-0.1-16.5,1.2-17.7,17.8-17.7c2.8,0,5.6,0,8.9,0c0-2.2,0-4,0-5.8
	c0-26.5,0-53,0-79.5c0-21.7,9.8-34.5,30.8-40.4c0.3-0.1,0.5-0.4,0.8-0.6C220,0,291.6,0,363.1,0c1.6,1.4,3.2,2.8,4.7,4.3
	c39.4,39.3,78.7,78.7,118.1,118c3.2,3.2,4.5,6.5,4.5,11c-0.1,38.6-0.1,77.2-0.1,115.8c0,73.7,0,147.4,0,221.1
	c0,16.1-7.2,27.9-21.6,35.1c-3.2,1.6-6.8,2.4-10.2,3.6C355.2,509,251.8,509,148.4,509z M216.7,205.8c-6.6-11.4-12.9-22.3-19.3-33.5
	c-2.9,1.7-5.4,3.1-7.8,4.5c-6.1,3.4-8.6,2.7-14.5-1.1c-7.5-5-15.5-9.5-23.5-13.6c-5.7-2.9-7.8-5.2-7.9-11.8c0-2.9,0-5.8,0-8.9
	c-13.1,0-25.6,0-38.7,0c0,3.7,0,7.1,0,10.6c0,4.7-2.5,7.4-6.5,9.6c-8.8,4.8-17.5,9.8-26,15.1c-4.1,2.5-7.9,3.1-12.1,0.7
	c-2.8-1.7-5.7-3.3-8.9-5.1c-6.5,11.2-12.8,22.2-19.3,33.5c2.3,1.4,4.3,2.6,6.3,3.7c7.8,4.5,8.3,6.5,7.6,15.3
	c-0.6,8.5-0.5,17.2,0.2,25.7c0.5,6-1,10.3-6.5,13.1c-2.5,1.2-4.8,2.8-7.6,4.4c6.4,11.2,12.8,22.2,19.3,33.5c3.1-1.8,6-3.4,8.8-5.1
	c4.4-2.6,8.2-1.8,12.5,0.8c8.3,5.3,16.9,10.2,25.6,14.8c4.3,2.3,6.7,5.1,6.7,10c0,3.3,0,6.5,0,10.1c13.1,0,25.6,0,38.7,0
	c0-3.5-0.1-6.8,0-10c0.1-4.8,2.5-7.8,6.7-10c8.9-4.7,17.5-9.8,26.1-15.1c3.9-2.4,7.5-3.2,11.6-0.9c3,1.7,6,3.4,9.4,5.2
	c6.5-11.2,12.8-22.2,19.3-33.4c-3-1.8-5.5-3.3-8.1-4.8c-5.7-3.4-6.3-6.1-5.9-12.8c0.5-9.2,0.5-18.5-0.2-27.7
	c-0.4-5.3,0.8-9.1,5.3-11.8C210.6,209.3,213.4,207.7,216.7,205.8z M368,27c0,23.9-0.1,47.9,0,71.9c0.1,14.3,9.3,23.4,23.8,23.4
	c22.5,0,45,0,67.5,0c1.4,0,2.8-0.1,3.9-0.2C431.5,90.5,399.9,58.9,368,27z"/>
<path class="st0" d="M303.9,403.6c-43.2,0-86.4,0-129.6,0c-1.5,0-3,0.1-4.5-0.1c-4.1-0.6-6.6-3-6.7-7.2c-0.1-4.1,2.7-7.1,7-7.5
	c1.3-0.1,2.6-0.1,4-0.1c86.9,0,173.9,0,260.8,0c1.2,0,2.3-0.1,3.5,0c4.3,0.4,7.3,3.4,7.3,7.3c0.1,3.9-2.9,7.1-7.1,7.5
	c-1.5,0.1-3,0.1-4.5,0.1C390.7,403.6,347.3,403.6,303.9,403.6z"/>
<path class="st0" d="M304.6,433.4c43.2,0,86.4,0,129.6,0c1.7,0,3.3-0.2,5,0.1c3.9,0.7,6.3,3.1,6.4,7.1c0.1,4.2-2.3,6.8-6.4,7.6
	c-1.4,0.3-3,0.1-4.5,0.1c-86.9,0-173.9,0-260.8,0c-1.5,0-3,0.2-4.5-0.1c-4.1-0.8-6.5-3.3-6.4-7.6c0.1-4.1,2.5-6.4,6.4-7.1
	c1.6-0.3,3.3-0.1,5-0.1C217.8,433.4,261.2,433.4,304.6,433.4z"/>
<path class="st0" d="M326.9,344c35.9,0,71.8,0,107.8,0c1.7,0,3.4-0.2,4.9,0.2c3.6,0.8,5.8,3.2,6,7c0.1,4-2.1,6.6-5.9,7.5
	c-1.6,0.4-3.3,0.2-4.9,0.2c-72,0-144,0-216,0c-1.5,0-3,0.2-4.5-0.1c-4.1-0.8-6.5-3.2-6.4-7.5c0.1-4.1,2.5-6.4,6.3-7.1
	c1.6-0.3,3.3-0.1,5-0.1C255,344,291,344,326.9,344z"/>
<path class="st0" d="M349,314.1c-28.8,0-57.6,0-86.4,0c-2.1,0-4.4-0.2-6.2-1.1c-3.2-1.5-4.8-4.7-3.5-7.8c1-2.4,3.6-4.3,5.9-5.8
	c1.2-0.8,3.2-0.2,4.9-0.2c56.9,0,113.9,0,170.8,0c1.2,0,2.3-0.1,3.5,0c4.6,0.3,7.7,3.4,7.6,7.5c0,4.1-3.1,7.3-7.8,7.3
	c-10.8,0.1-21.5,0.1-32.3,0.1C386.7,314.1,367.9,314.1,349,314.1z"/>
<path class="st0" d="M351.7,165c27.6,0,55.3,0,82.9,0c1.7,0,3.4-0.2,4.9,0.2c3.8,0.9,6.1,3.4,6,7.4c-0.1,3.8-2.3,6.2-5.9,7
	c-1.6,0.4-3.3,0.2-4.9,0.2c-55.6,0-111.2,0-166.9,0c-1.3,0-2.7,0.1-4-0.1c-4.2-0.5-7.3-3.7-7-7.6c0.3-4.2,2.7-6.6,6.9-7.2
	c1.5-0.2,3-0.1,4.5-0.1C296.1,165,323.9,165,351.7,165z"/>
<path class="st0" d="M356.7,209.8c26,0,52,0,78,0c1.5,0,3-0.1,4.5,0.1c4.1,0.7,6.6,3.3,6.5,7.5c-0.1,4-2.5,6.4-6.3,7.2
	c-1.3,0.3-2.6,0.1-4,0.1c-52.5,0-104.9,0-157.4,0c-1.2,0-2.3,0.1-3.5-0.1c-4.3-0.5-7.1-3.5-7-7.6c0.2-4.3,2.6-6.6,6.8-7.2
	c1.5-0.2,3-0.1,4.5-0.1C304.7,209.8,330.7,209.8,356.7,209.8z"/>
<path class="st0" d="M356.7,269.4c-26.1,0-52.3,0-78.4,0c-1.7,0-3.4,0.2-4.9-0.2c-3.8-1-6-3.5-5.8-7.5c0.1-3.8,2.3-6.1,5.9-6.9
	c1.6-0.4,3.3-0.2,4.9-0.2c52.1,0,104.3,0,156.4,0c1.5,0,3-0.1,4.5,0.1c3.9,0.7,6.3,3.1,6.4,7.1c0.1,4.2-2.4,6.8-6.5,7.5
	c-1.4,0.3-3,0.1-4.5,0.1C408.7,269.4,382.7,269.4,356.7,269.4z"/>
<path class="st0" d="M76.5,236.6c0.1-26.5,21.7-47.9,48.2-47.7c26.4,0.2,47.8,21.9,47.6,48.4c-0.2,26.2-21.7,47.5-48,47.4
	C97.7,284.6,76.4,263.2,76.5,236.6z M91.4,237c0.1,18.4,15,33,33.3,32.8c18.1-0.2,32.7-15,32.6-33.1c-0.1-18.2-15.1-33-33.4-32.9
	C105.9,204,91.3,218.9,91.4,237z"/>
</svg>
