<?xml version="1.0" encoding="utf-8"?>
<!-- Generator: Adobe Illustrator 25.4.1, SVG Export Plug-In . SVG Version: 6.00 Build 0)  -->
<svg version="1.1" id="Layer_1" xmlns="http://www.w3.org/2000/svg" xmlns:xlink="http://www.w3.org/1999/xlink" x="0px" y="0px"
	 viewBox="0 0 512 512" style="enable-background:new 0 0 512 512;" xml:space="preserve">
<style type="text/css">
	.st0{fill:#47D7AC;}
</style>
<path class="st0" d="M276.6,1.6c1.1,0.6,2.3,1.2,3.4,1.7c7.9,3.8,12.3,9.9,12.6,18.7c0.1,4.5,0.3,9,0,13.5c-0.4,6.3-0.6,11.7,8,12.7
	c3.9,0.5,5.6,4.5,4.5,8.7c-1,3.9-4.8,6.1-8.9,5.2c-2.9-0.6-5.8-1.6-8.6-2.4c-7.1-2-9.7-5.4-9.8-13c-0.1-7.5,0-15,0-22.4
	c0-5.9-1.9-7.8-7.7-7.8c-11,0-21.9-0.1-32.9,0c-5.5,0-7.4,2-7.4,7.6c-0.1,7.5,0,15,0,22.4c0,7.8-2.6,11.4-10,13.3
	c-14.2,3.6-27.7,9.2-40.3,16.8c-5.9,3.5-10.5,2.9-15.3-1.8c-5.6-5.5-11-11.1-16.6-16.5c-4-4-6.7-4-10.6-0.1
	c-7.9,7.8-15.8,15.7-23.6,23.6c-3.7,3.8-3.7,6.5,0,10.3c5.5,5.6,11.1,11,16.5,16.6c5.1,5.2,5.7,9.5,2,15.7
	c-7.6,12.8-13.3,26.3-16.8,40.8c-1.6,6.4-5.2,9.1-11.8,9.2c-7.8,0.1-15.6,0-23.4,0.1c-5.9,0.1-7.8,2-7.9,7.8c-0.1,5.1,0,10.2,0,15.7
	c19.6,0,38.7,0,58.2,0c1.2-37.9,15.7-69.6,44.7-94.1c22.5-19.4,49.1-28.7,79-28.9c67.1-0.4,124.4,55.9,123.9,123c19,0,38.1,0,57.6,0
	c0-6.3,0.3-12.6-0.1-18.8c-0.3-3.8-3.6-4.8-7-4.9c-7.6,0-15.3,0-22.9,0c-7.9,0-11.2-2.5-13.1-10.2c-3.5-13.8-8.8-26.7-16.1-39
	c-4.4-7.3-3.8-11.2,2.1-17.3c5.3-5.3,10.6-10.5,15.8-15.9c3.7-3.8,3.8-6.5,0.1-10.3c-7.9-8-15.9-16-24-24c-3.5-3.5-6.4-3.5-9.9,0
	c-5.6,5.4-11,11.1-16.6,16.5c-6.6,6.5-18.4,5.1-22.6-3.1c-1.1-2.1-0.6-5.9,0.6-8.2c1.7-3.3,5.6-3.9,8.8-2c3.2,1.9,5,0.8,7.1-1.5
	c4.1-4.4,8.4-8.6,12.7-12.7c9-8.6,21-8.8,29.9-0.2c8.7,8.4,17.3,17,25.7,25.7c8.2,8.5,8.2,20.5,0,29.2c-4.5,4.8-9.3,9.5-14.1,14.1
	c-1.9,1.8-1.8,3.1-0.8,5.5c5,11.5,9.8,23.1,14.4,34.8c1,2.6,2.1,3.6,4.9,3.6c6.1-0.2,12.3-0.1,18.4,0c13,0.2,21.4,8.5,21.9,21.5
	c0.2,5.8,0.1,11.6,0,17.4c-0.1,10.5-4.2,14.6-14.9,14.7c-1.5,0-2.9,0-5.2,0c0,2.6,0,4.9,0,7.2c-0.1,45.9-16.3,85.2-48.8,117.7
	c-2.6,2.6-5.4,4.5-9.3,3.3c-5.7-1.8-6.3-8.2-1.9-13.3c7.5-8.8,15.5-17.4,21.9-27c17-25.7,23.9-54.4,23.1-85.1c0-0.6-0.2-1.3-0.4-2.3
	c-107.6,0-215.1,0-323.9,0c0.8,10.7,1.3,21.2,2.4,31.7c0.5,5.1,2,10.1,3.2,15.1c1.5,6.4,0.1,10.2-4.4,11.5
	c-4.9,1.4-8.4-1.1-10.1-7.5c-3.9-14.5-5.7-29.3-5.5-44.3c0-2.1,0-4.2,0-6.8c-3.1,0-5.6,0.1-8,0c-7-0.3-11.6-4.4-11.9-11.5
	c-0.3-7.5-0.4-15,0-22.4c0.7-11.6,9.2-19.4,21-19.7c6.5-0.2,13,0.1,19.4-0.1c1.3,0,3.4-0.9,3.8-1.9c5.3-13.2,10.3-26.5,15.8-40.7
	c-4-3.9-9-8.8-14-13.7c-10-10.1-10.1-22-0.2-32c7.8-7.9,15.7-15.8,23.6-23.6c9.7-9.5,21.6-9.5,31.3,0c5.1,5,10.1,10.1,15.2,15.2
	c6.1-3,11.9-6.2,18-8.7c6.3-2.6,12.7-5,19.2-6.8c3.9-1.1,5-2.8,4.7-6.6c-0.3-4.1,0.2-8.3-0.1-12.4c-1.1-12.9,3.9-21.8,16.1-26.5
	C246,1.6,261.3,1.6,276.6,1.6z M332.6,198c-1.9-31.4-15.4-55.2-43-69.3c-28.8-14.7-57.4-12.1-83.5,7.2
	c-20.5,15.2-30.5,36.3-31.3,62.1C227.7,198,279.7,198,332.6,198z M362,198c0.7-34.2-17.8-74.8-57-95c-40.8-21-80.7-17.8-117.5,9.6
	c-28.1,21-41.6,50.2-42.6,85.3c5.4,0,10,0,14.5,0c1.8-56.8,47.9-92.7,92-93.1c22.2-0.2,42.3,6.1,59.7,19.8
	c23.6,18.6,35.2,43.4,36.4,73.3C352.5,198,357.1,198,362,198z"/>
<path class="st0" d="M226.7,512c-8.8-2.4-17-6.2-22.2-13.9c-2.7-3.9-3.5-9.3-6.6-12.6c-3.1-3.2-8.5-4-12.2-6.8
	c-8.6-6.5-11.2-18.2-7-28.3c0.6-1.5,1.4-3,2.1-4.5c-8.2-7.1-11.8-15.6-9-26.3c1.5-5.9,5.1-10.2,9.8-14c1.5-1.2,2.8-3.6,2.9-5.5
	c0.3-6.8-0.1-13.6,0.2-20.4c0.2-3.7-1.3-5.1-4.5-6.4c-36.5-14.6-64.3-39.2-83.5-73.5c-3.3-5.9-1.7-11.1,3.8-12.4
	c4.8-1.1,7.4,1.6,9.5,5.4c8.1,14.9,18.6,27.9,31.2,39.1c14.7,13.1,31.2,22.9,49.8,29.4c7.7,2.7,8.6,4,8.6,12.3c0,9,0,17.9,0,27.3
	c35.6,0,71.1,0,107.1,0c0-8.9,0-17.8,0-26.7c0-8.7,1.1-9.6,8.8-12.8c9.9-4.1,19.6-8.9,29.3-13.6c5.5-2.7,10.2-1.6,11.9,3.4
	c1.5,4.4-0.5,7.5-4.3,9.4c-8.9,4.5-17.7,9-26.8,13.1c-2.9,1.3-4.1,2.5-4,5.7c0.2,6.8,0,13.6,0.2,20.4c0,1.5,0.8,3.6,2,4.5
	c15.9,11.7,17.1,27.1,3.2,41c1.2,4.2,3,8.3,3.4,12.4c1.2,12.8-7,23.3-19.6,26.1c-1.4,0.3-3.5,1.2-3.8,2.2
	c-4.4,14.3-14.5,22.1-28.4,25.8C261.3,512,244,512,226.7,512z M253.4,435.4L253.4,435.4c19.4,0,38.8,0,58.3-0.1
	c5.8,0,9.6-3.9,9.8-9.1c0.1-5.2-3.6-9.2-9.3-9.7c-1.3-0.1-2.7-0.1-4-0.1c-36.3,0-72.7,0-109,0c-2,0-4,0-5.9,0.4
	c-4.9,1.1-7.9,5.6-7.3,10.4c0.7,5.1,4.6,8.1,10.7,8.2C215.6,435.5,234.5,435.4,253.4,435.4z M253.4,469.3c17.1,0,34.2,0.2,51.3-0.2
	c3-0.1,7-1.4,8.6-3.6c1.7-2.3,2-6.6,1.2-9.6c-1.2-4.6-5.6-5.6-10-5.6c-33.9,0-67.8,0-101.6,0c-7,0-11,3.6-11.1,9.4
	c-0.1,6,4,9.5,11.4,9.5C219.8,469.3,236.6,469.3,253.4,469.3z M213.7,484.4c3.5,7.8,9,12.2,16.6,12.4c14.9,0.5,29.8,0.4,44.7,0
	c7.9-0.2,14.7-6.2,15.7-12.5C265.3,484.4,240,484.4,213.7,484.4z"/>
<path class="st0" d="M65.3,69.2c-0.1,6.7-5.7,10.5-10.5,7.8c-5.2-2.8-10.1-6.3-14.8-9.9c-3.1-2.4-3.7-5.9-1.5-9.3
	c2.3-3.6,5.9-4.7,9.5-2.8c5.3,3,10.3,6.5,15.2,10.2C64.5,66.2,65,68.5,65.3,69.2z"/>
<path class="st0" d="M469.9,63.2c-0.8,1-2,3.4-4,4.9c-3.8,2.9-7.8,5.5-11.9,8c-4.2,2.6-8.6,1.9-10.9-1.7c-2.4-3.6-1.4-7.9,2.7-10.7
	c4.2-2.9,8.4-5.9,12.8-8.4C463.9,52.3,470,55.9,469.9,63.2z"/>
<path class="st0" d="M43.5,355.3c-1.5-1.3-4.5-2.8-5.3-5.1c-0.8-2.1-0.1-6.1,1.5-7.5c4.7-4,10.1-7.5,15.5-10.6
	c3.1-1.8,7.1-1,8.6,2.4c1.1,2.4,1.5,7.2,0,8.5c-5.2,4.5-11.2,7.9-17,11.7C46.3,355,45.5,354.9,43.5,355.3z"/>
<path class="st0" d="M469.9,346.5c0.1,6.5-5.9,10.3-10.9,7.5s-9.8-6.1-14.4-9.6c-3.1-2.4-3.6-5.9-1.7-9.3c2-3.6,5.6-4.9,8.9-3.1
	c5.6,3,10.8,6.9,16,10.7C469.1,343.6,469.5,345.7,469.9,346.5z"/>
<path class="st0" d="M41.1,153.8c-0.2,6.2-4,9.6-8.5,9.1c-3.9-0.4-7.8-1.2-11.7-2.1c-4.3-1-6.5-4.4-5.8-8.5c0.6-4,3.8-6.6,8.2-6.1
	c4.1,0.4,8.4,0.8,12.1,2.3C38,149.6,39.8,152.6,41.1,153.8z"/>
<path class="st0" d="M492.3,153.6c-0.2,3.8-2.2,6.3-5.8,7.1c-3.8,1-7.8,1.6-11.7,2.2c-4.2,0.5-7.6-2.1-8.4-6
	c-0.8-3.8,1.6-7.6,5.7-8.6c3.8-0.9,7.8-1.7,11.7-2.1C488.7,145.7,492.3,149,492.3,153.6z"/>
<path class="st0" d="M23.5,263c-4.9-0.2-7.6-2-8.3-6c-0.7-3.9,0.8-7.1,4.7-8.2c4.4-1.3,9-2.2,13.6-2.6c3.9-0.3,6.6,2.1,7.4,6
	c0.8,3.9-1,7.1-4.7,8.2C31.7,261.8,27.1,262.3,23.5,263z"/>
<path class="st0" d="M483,262.9c-3.1-0.6-7.4-1.1-11.5-2.3c-3.9-1.2-5.9-4.3-5-8.5c0.9-4.1,3.8-6.3,8-5.9c4.1,0.4,8.2,1.2,12.2,2.3
	c4.3,1.1,6.3,4.6,5.5,8.7C491.4,260.9,488.4,263,483,262.9z"/>
</svg>
