<?xml version="1.0" encoding="utf-8"?>
<!-- Generator: Adobe Illustrator 25.4.1, SVG Export Plug-In . SVG Version: 6.00 Build 0)  -->
<svg version="1.1" id="Layer_1" xmlns="http://www.w3.org/2000/svg" xmlns:xlink="http://www.w3.org/1999/xlink" x="0px" y="0px"
	 viewBox="0 0 512 512" style="enable-background:new 0 0 512 512;" xml:space="preserve">
<style type="text/css">
	.st0{fill:#47D7AC;}
</style>
<path class="st0" d="M1.8,483.2c2.6-3,5-6.2,7.7-9c15.9-16.1,28.4-34.1,32.6-56.9c0.5-2.9,0.9-5.9,1.5-8.8
	c2.5-11.6-0.5-21.4-6.4-31.9c-60-106-33.3-242.8,61.7-319.2C150.1,16.2,208.8-2.2,274.2,1.1C389.6,7,489.1,96,508.1,210
	c1.5,9.3,2.6,18.7,3.9,28c0,10.6,0,21.3,0,31.9c-1.4,10.2-2.3,20.4-4.3,30.5c-33.2,173.1-225.3,261.1-378.4,171.3
	c-3.3-1.9-5.7-2.2-9-0.4C87.8,489.2,52.9,496.8,16,496.1c-6.2-0.1-11-1.4-14.1-7C1.8,487.2,1.8,485.2,1.8,483.2z M35.2,475.9
	c9-1.2,16.7-1.9,24.3-3.2c21-3.7,40-12.8,58.7-22.6c5.3-2.7,9.7-2.7,14.9,0.5c72.4,44,148.4,50.6,224.7,14
	c85.3-41,130.2-111.4,133.9-206.1c2.3-59.8-17.5-113.4-57.6-157.9c-59.6-66.1-134.5-91.6-222-75c-62,11.7-110.9,45.6-146.5,97.6
	c-31,45.2-43.8,95.5-39.6,150c3,38.2,15,73.6,35.6,106c1.5,2.3,3,5.1,3,7.7c0.4,29.4-5.5,57-23.6,81.1
	C39.3,470.2,37.8,472.4,35.2,475.9z"/>
<path class="st0" d="M350.8,281.4c0,16.4,0.1,33,0,49.6c0,3.6-0.2,7.3-1.1,10.8c-3.3,13.1-14.6,22.3-28,23
	c-13.9,0.8-25.8-6.9-31.2-19.5c-1.2-2.8-3.4-5.7-5.9-7.5c-25.4-18.1-54.2-28.3-84.4-34.9c-6.4-1.4-13-2.5-20.4-3.8
	c0.9,7.9,1.7,15.1,2.6,22.2c1.4,11.4,3,22.7,4.4,34.1c1.2,9.6-4.5,18.3-13.9,20.9c-4.8,1.3-9.7,2.3-14.6,3.2
	c-12.4,2.2-22.1-4.7-23.8-17.2c-2.5-18.4-4.9-36.8-7.1-55.3c-0.4-3.6-1.3-5-5.3-5.2c-28.1-1.9-50.8-27.1-50.5-55.7
	c0.3-29,23.5-53.7,52-54.8c14.6-0.6,29.2-0.2,43.8-0.3c1.3,0,3-0.2,3.9,0.5c5.7,4.4,11.7,1.9,17.6,0.8c33.3-6,64.9-16.3,93.3-35.3
	c4-2.7,7.1-5.7,9.1-10.6c5.5-13.5,20.4-20.7,34.8-17.7c13.8,2.8,24.3,15.1,24.5,29.5c0.3,16.8,0.1,33.5,0.1,50.3
	c0,1.1,0.1,2.3,0.2,3.4c20.4,7.1,29.4,17.4,29.7,34C381,262.8,372.4,273.1,350.8,281.4z M288,315.9c0-46.6,0-92.4,0-138.8
	c-33.9,21-70.8,31.4-109.2,37.1c0,21.9,0,43.1,0,64.7C217.4,284.4,254.1,294.9,288,315.9z M330.8,246.5c0-24.4,0-48.8,0-73.2
	c0-4.8,0.1-9.6-0.1-14.4c-0.3-6.2-4.8-10.7-10.8-10.9c-6.2-0.2-10.9,4.1-11.5,10.6c-0.2,1.6-0.1,3.3-0.1,5c0,55.3,0,110.6,0,165.9
	c0,2.2,0,4.3,0.3,6.5c0.8,5,4.8,8.6,9.8,9.1c7.4,0.6,12.3-4.3,12.4-12.7C330.9,303.6,330.8,275.1,330.8,246.5z M158.6,211
	c-11.4,0-22.3-0.3-33.2,0.1c-17.9,0.7-31.9,14.5-33.6,32.6c-1.6,16.9,10,34.1,27.2,37.1c11.6,2,23.8,1,35.7,1.3
	c1.3,0,2.5-0.2,3.9-0.4C158.6,258.1,158.6,234.9,158.6,211z M167,357.2c-2.4-18.6-4.7-36.7-7-54.8c-4.5,0-8.5,0-13,0
	c2.5,19.3,5,38.2,7.5,57.5C158.7,359,162.5,358.2,167,357.2z M350.9,259.8c7.1-2.4,10.5-7.9,9.8-15.1c-0.6-5.9-4.6-10.5-9.8-11.2
	C350.9,242.2,350.9,250.8,350.9,259.8z"/>
<path class="st0" d="M423.5,184.9c-1.8,2.5-3.2,5.9-5.6,7.5c-9.2,5.8-18.7,11.2-28.3,16.5c-5,2.8-10.6,1-13.3-3.7
	c-2.7-4.7-1.4-10.4,3.5-13.4c9.3-5.6,18.8-11.2,28.4-16.3C415,171.8,422.6,176.7,423.5,184.9z"/>
<path class="st0" d="M423.4,308.2c-0.8,7.7-7.9,13-14.2,9.7c-10.3-5.3-20.3-11.2-30.1-17.3c-4.4-2.7-5.3-8.4-2.8-12.8
	c2.6-4.6,8-6.6,12.9-3.9c9.9,5.4,19.7,11,29.2,16.9C420.6,302.3,421.7,305.7,423.4,308.2z"/>
<path class="st0" d="M420.1,256.4c-5,0-9.9,0.2-14.9,0c-6.2-0.3-10-4.4-9.9-10.1c0.1-5.5,3.9-9.5,9.9-9.6c10.1-0.2,20.2-0.2,30.3,0
	c6.2,0.1,10.1,4.4,10,10.1c-0.1,5.5-3.9,9.2-9.9,9.7c-0.3,0-0.7,0.1-1,0.1C429.7,256.4,424.9,256.4,420.1,256.4L420.1,256.4z"/>
</svg>
