<?xml version="1.0" encoding="utf-8"?>
<!-- Generator: Adobe Illustrator 25.4.1, SVG Export Plug-In . SVG Version: 6.00 Build 0)  -->
<svg version="1.1" id="Layer_1" xmlns="http://www.w3.org/2000/svg" xmlns:xlink="http://www.w3.org/1999/xlink" x="0px" y="0px"
	 viewBox="0 0 285.1 73.8" style="enable-background:new 0 0 285.1 73.8;" xml:space="preserve">
<style type="text/css">
	.st0{fill:#FFFFFF;}
</style>
<g>
	<path class="st0" d="M56.7,20c-0.2,1.7-1.3,3.7-3.4,5.8s-4.9,4.4-8.4,6.8c-6.9,4.7-15.1,8.8-24.4,12.2c-0.1,0-0.2,0.1-0.3,0.1
		c0,0,0,0,0,0c-0.7,0.2-1.3,0.5-2,0.7c-1.3,0.5-2.5,0.9-3.7,1.3c-0.6,0.2-1.1,0.4-1.3,0.6c-0.2,0.2-0.4,0.3-0.5,0.5
		c0,0,0,0.1-0.1,0.1c-0.1,0.2-0.3,0.4-0.4,0.7c-0.2,0.3-0.3,0.5-0.3,0.6C10.4,52.4,9,54.9,7.7,57c-1.2,1.9-2.5,3.7-3.8,5.3
		c0,0-0.1,0.1-0.1,0.2c-0.1,0.1-0.3,0.3-0.5,0.6c-0.2,0.3-0.5,0.5-0.7,0.8c0,0,0,0,0,0.1c0,0,0,0,0,0c-0.4,0.4-0.8,0.7-1.1,0.8v0
		c-0.3,0.1-0.5,0.2-0.7,0.1c-0.2,0-0.4-0.1-0.5-0.2c-0.1-0.1-0.1-0.2-0.1-0.3c0-0.1,0-0.2,0.1-0.3c0.1-0.1,0.1-0.2,0.1-0.2
		c0.2-0.2,0.4-0.4,0.7-0.6c0.1-0.1,0.3-0.3,0.4-0.5v0c0.2-0.3,0.4-0.6,0.7-1c0.5-0.7,1-1.5,1.7-2.6c1.9-2.8,4.1-6.1,6.6-10.2
		c0.2-0.3,0.2-0.4,0.2-0.6c0-0.1-0.2-0.2-0.4-0.1c-1.7,0.5-3.4,1-5.1,1.4c-0.1,0-0.2,0-0.3,0c-0.3,0-0.5-0.1-0.6-0.2
		c-0.2-0.2-0.2-0.4-0.2-0.6c0-0.3,0.2-0.6,0.4-0.9c0.2-0.3,0.5-0.4,0.8-0.3c1.4,0.3,3.1,0.2,5-0.3c0.1,0,0.1,0,0.2,0c0,0,0,0,0.1,0
		c0.5-0.2,0.9-0.4,1.1-0.7c0.2-0.3,0.4-0.6,0.5-0.9c0.4-1.1,0.7-2.2,1-3.2c0.4-1.4,0.3-2.5-0.1-3.1c-0.4-0.6-1-1.1-1.8-1.3
		c-0.6-0.2-1.3-0.5-2-1c-0.7-0.5-1.2-1.2-1.6-2c-0.5-1.7,0.4-3.9,2.7-6.6c3.3-3.7,7.8-6.9,13.6-9.5c7.1-3.1,14.8-4.6,23.1-4.5
		c2.8,0.1,4.8,0.4,6.3,0.9c1.4,0.6,2.4,1.2,2.8,2.1C56.6,18.3,56.8,19.1,56.7,20z M7.2,56.5c0.5-0.7,1-1.6,1.5-2.6
		c0.1-0.2,0.1-0.2-0.1,0c-0.6,0.9-1.2,1.7-1.7,2.5c-1.4,2-2.5,3.7-3.4,4.9c-0.3,0.4-0.5,0.7-0.7,1c0,0.1-0.1,0.1-0.1,0.2
		c0,0.1,0,0.1,0,0.1s0.1,0,0.1-0.1c0.6-0.6,1.3-1.4,1.9-2.3C5.4,59.3,6.3,58.1,7.2,56.5z M44.9,31.3c3-2.1,5.5-4.3,7.2-6.4
		s2.7-3.9,2.9-5.2c0.1-1.1-0.7-1.9-2.2-2.3c-1.5-0.4-3.7-0.6-6.4-0.7c-0.3,0-0.5,0-0.7,0c-3.6,0-6.9,0.3-10,0.8s-5.9,1.3-8.5,2.2
		c-2.6,0.9-4.9,1.9-6.9,3s-3.7,2.2-5.2,3.4s-2.6,2.2-3.4,3.2c-0.5,0.6-1.1,1.3-1.7,2.3c-0.6,0.9-0.8,1.8-0.7,2.8s0.8,1.8,2.2,2.5
		c0.1,0,0.2,0.1,0.2,0.1c0.9,0.4,1.6,0.9,2.2,1.4s0.7,1.4,0.6,2.6c-0.1,0.4-0.1,0.8-0.2,1.2v0c-0.1,0.3-0.1,0.4,0,0.5
		c0,0.1,0.1,0,0.2-0.1c0.1-0.1,0.2-0.2,0.3-0.4c0.5-0.8,1.1-1.6,1.6-2.5c1.6-2.5,3.1-4.8,4.3-6.8c1.2-2,1.9-3.4,2.1-4.1
		c0.1-0.2,0.2-0.4,0.4-0.5c0.2-0.1,0.5-0.2,0.8-0.2c0.3,0,0.5,0,0.7,0c0.3,0.1,0.4,0.3,0.5,0.6s0,0.6-0.2,0.9
		c-1,1.5-2.4,3.7-4.3,6.5c-1.9,2.8-4,5.8-6.2,9c-0.2,0.3-0.3,0.5-0.3,0.6c0,0.1,0.1,0.2,0.2,0.2s0.3,0,0.4-0.1
		c1.8-0.6,3.6-1.3,5.2-1.9c4.6-1.7,9-3.6,13.3-5.9C37.7,35.9,41.5,33.6,44.9,31.3z"/>
	<path class="st0" d="M55.2,46L55.2,46c-1.3,0.9-2.5,1.7-3.7,2.5c-4.2,2.9-7.5,5-9.9,6.2c-2,1-3.4,1.5-4.3,1.5
		c-0.5,0-0.9-0.2-1.2-0.5c-0.3-0.4-0.4-0.9-0.1-1.6v0v0c0.2-0.5,0.5-1.1,0.9-1.6s0.8-1,1.2-1.4c0.2-0.2,0.4-0.4,0.6-0.7
		c0.1-0.1,0.1-0.1,0.1-0.1c0.3-0.3,0.5-0.6,0.7-0.9c0.2-0.3,0.3-0.5,0.3-0.7c0-0.3-0.1-0.6-0.5-0.8c-0.3-0.2-0.8-0.4-1.2-0.5
		c-0.6-0.2-1.1-0.4-1.6-0.7c-0.5-0.3-0.7-0.7-0.6-1.3c0.1-1.5,1.3-3,3.6-4.2l0,0c0.3-0.2,0.6-0.2,0.9-0.1c0.3,0.1,0.5,0.2,0.6,0.5
		c0.1,0.3,0.1,0.7,0,1.1s-0.4,0.8-0.7,1l0,0c-0.3,0.2-0.6,0.3-0.8,0.4c-0.4,0.2-0.7,0.4-1,0.5c-0.3,0.2-0.4,0.4-0.5,0.7
		c0,0.2,0.5,0.6,1.4,1c1.4,0.7,2.1,1.6,2.1,2.6c-0.1,0.6-0.4,1.2-0.9,1.9c-0.6,0.6-1.1,1.3-1.8,1.9c-0.5,0.5-1,0.9-1.3,1.3
		c-0.4,0.4-0.5,0.7-0.4,1c0.6,0.8,2.4,0.3,5.4-1.4c3-1.7,7.3-4.3,12.6-7.9h0c0.1-0.1,0.2-0.1,0.2,0c0.1,0,0.1,0.1,0.1,0.2
		C55.5,45.8,55.4,45.9,55.2,46z"/>
	<path class="st0" d="M68,45.5c0.1,0,0.1,0.1,0,0.2s-0.1,0.2-0.2,0.3c-1.5,1-3.1,2.1-4.9,3.3s-3.6,2.3-5.3,3.3
		c-1.7,1-3.2,1.8-4.5,2.3c-1.3,0.5-2.1,0.6-2.5,0.3c-0.4-0.5-0.5-1.1-0.3-2c0.3-0.8,0.7-1.8,1.4-2.9s1.5-2.2,2.3-3.4
		c0.1-0.2,0.3-0.4,0.4-0.5c0.1-0.2,0.2-0.3,0.3-0.5c0.1-0.1,0.2-0.3,0.3-0.5c0.1-0.2,0.4-0.3,0.8-0.4s0.7-0.2,1.1-0.1
		s0.6,0.1,0.7,0.2c0.1,0.2,0.1,0.3,0,0.5c-0.1,0.1-0.2,0.3-0.4,0.4c-0.1,0.1-0.2,0.2-0.3,0.4c-0.1,0.1-0.2,0.2-0.3,0.3
		c-0.5,0.5-1.1,1.2-2,2.2c-0.9,1-1.6,1.9-2.3,2.9s-0.9,1.8-0.7,2.3c0.3,0.4,1.7,0,4.1-1.3c2.4-1.3,6.4-3.7,11.8-7.4
		C67.9,45.5,68,45.4,68,45.5z M58.3,42.5c-0.2,0-0.3-0.1-0.3-0.3c0-0.1,0.1-0.3,0.2-0.5c0.1-0.2,0.2-0.3,0.2-0.5
		c0.1-0.3,0.2-0.6,0.5-0.8s0.5-0.3,0.8-0.3c0.2,0,0.4,0,0.6,0.1c0.2,0,0.3,0.1,0.3,0.3c0.1,0.2,0,0.4-0.1,0.8c-0.2,0.5-0.6,0.9-1,1
		C59.1,42.5,58.7,42.5,58.3,42.5z"/>
	<path class="st0" d="M139.6,18.3c0.2,0.3,0.2,0.8,0.1,1.4c-0.1,0.6-0.4,1.3-1,2.1c-0.2,0.3-0.5,0.5-0.8,0.6
		c-0.3,0.1-0.6,0.1-0.8-0.1c-0.5-0.3-0.5-0.7-0.1-1.3c0.3-0.3,0.5-0.5,0.7-0.7c0.1-0.1,0.3-0.2,0.4-0.3c0.1-0.1,0.1-0.2,0.2-0.4
		c0.1-0.4-0.4-0.8-1.4-1.3c-1-0.5-2.8-0.8-5.3-1.1s-6.1-0.4-10.7-0.2c-7.4,0.3-18,1.1-31.7,2.6c-0.1,0-0.2,0.1-0.3,0.2
		c-0.1,0.1-0.3,0.2-0.4,0.4v0c-1,1.3-2.2,2.7-3.4,4.1C83.5,26.1,82,28,80.4,30c-4.2,5.9-7.9,11.2-11,15.7c-3.1,4.5-5.7,8.4-7.7,11.7
		c-2,3.4-3.5,6.1-4.4,8c-0.9,1.9-1.5,3.3-1.7,4.2c-0.2,0.9-0.3,1.5-0.2,1.8c0,0.1,0,0.2,0.1,0.4c0,0.1,0.1,0.3,0.3,0.3
		c0.1,0.1,0.3,0.1,0.6,0c0.8-0.3,1.1-0.1,0.8,0.6c-0.1,0.3-0.3,0.6-0.6,0.8S56.1,74,55.8,74c-0.5,0-0.8-0.1-1.1-0.3
		c-0.2-0.2-0.4-0.6-0.5-1c-0.3-0.8-0.1-2.1,0.5-4c0.6-1.9,2-4.7,4.1-8.5c2.1-3.8,5.2-8.8,9.3-15.1s9.5-14.3,16.2-23.9
		c0.3-0.5,0.5-0.8,0.5-0.9c0-0.1-0.2-0.2-0.5-0.1c-0.9,0.1-1.7,0.2-2.6,0.3c-10.3,1.3-17.5,1.8-21.3,1.7c-2.5-0.1-4.2-0.3-5.2-0.6
		c-0.9-0.3-1.4-0.8-1.4-1.3c0-0.7,0.2-1.3,0.6-1.9c0.5-0.6,1-1.1,1.6-1.5c0.6-0.4,1.1-0.8,1.5-1c0.3-0.2,0.6-0.3,0.9-0.2
		c0.3,0,0.5,0.2,0.6,0.4c0.1,0.3,0.1,0.5,0,0.8c-0.1,0.3-0.3,0.5-0.6,0.7c-0.1,0-0.1,0.1-0.2,0.1c-0.1,0.1-0.4,0.2-0.7,0.5
		c-0.3,0.2-0.5,0.5-0.6,0.9c-0.1,0.3,0,0.7,0.3,1.1c0.2,0.2,0.6,0.4,1.2,0.6c0.6,0.2,1.4,0.3,2.4,0.3c4.5,0.1,11.5-0.4,20.9-1.5
		c1-0.1,2-0.2,2.9-0.3h0c0.3,0,0.6-0.1,0.9-0.3c0.3-0.2,0.6-0.5,1-1c2.7-3.8,5.3-7.4,7.8-10.9c2.5-3.5,4.2-5.6,5.1-6.4
		c0.4-0.3,0.7-0.4,1-0.4c0.3,0,0.5,0.1,0.7,0.2c0.3,0.2,0.3,0.6,0.1,1.1c0,0.2-0.1,0.4-0.2,0.5c-0.3,0.6-0.8,1.4-1.5,2.6
		c-1.3,2-2.8,4.4-4.7,7.1c-1.3,1.9-3,4-4.9,6.4l0,0c0,0,0,0,0,0v0c0,0-0.1,0.1-0.1,0.1c0,0,0,0.1,0,0.1c0,0,0.1,0.1,0.1,0.1h0h0
		c0.1,0,0.1,0,0.2,0h0h0c13.1-1.6,23.3-2.5,30.6-2.8c5-0.2,8.8-0.2,11.4,0.1c2.6,0.2,4.5,0.5,5.5,1
		C138.8,17.2,139.4,17.8,139.6,18.3z M88,19.9c0-0.1,0.1-0.1,0.1-0.1c0,0,0-0.1-0.1,0c-0.1,0-0.2,0-0.3,0.1S87.5,20,87.4,20
		c-1,1.5-2.1,2.9-3.1,4.4c-0.1,0.1-0.1,0.2-0.1,0.2c0,0,0.1,0,0.2-0.1C85.6,23,86.8,21.4,88,19.9z M89.1,18.4
		c3.3-4.5,5.9-8.3,7.8-11.5c-1.8,2.3-4.6,6.1-8.3,11.5c-0.1,0.1-0.1,0.2-0.1,0.3c0,0.1,0,0.1,0.1,0.1h0c0,0,0.1,0,0.1,0
		C88.9,18.7,89,18.5,89.1,18.4z M90.4,18.5C90.4,18.5,90.4,18.5,90.4,18.5c0.1,0,0.1,0,0.2,0c0,0,0,0,0,0
		C90.5,18.5,90.5,18.5,90.4,18.5c0,0,0,0-0.1,0C90.3,18.5,90.3,18.5,90.4,18.5z"/>
	<path class="st0" d="M97.2,45.5c0.1,0,0.1,0,0.1,0c0,0,0,0.1,0,0.2S97.1,45.9,97,46c-3.1,2.3-5.9,4.1-8.3,5.6s-4.2,2.3-5.4,2.3
		c-0.6,0-1.2-0.1-1.6-0.4c-1.1-0.8-1.3-2.4-0.5-4.6c0.1-0.2,0.1-0.4,0.1-0.4s0-0.1-0.1-0.1c0,0-0.1,0-0.2,0.1
		c-0.1,0-0.1,0.1-0.2,0.1c-0.6,0.6-1.2,1.1-1.6,1.4c-0.5,0.4-1,0.7-1.4,1.1c-0.8,0.5-1.6,0.9-2.3,1.1c-0.7,0.2-1.3,0.3-1.7,0.1
		c-0.3-0.2-0.5-0.5-0.4-0.9c0.1-0.4,0.3-0.8,0.5-1.2c0.3-0.4,0.5-0.8,0.7-1c0,0,0,0,0.1,0c0.8-1.1,2-2.4,3.5-4
		c1.1-1.2,2.2-2.1,3.2-2.8c1-0.7,1.9-0.9,2.5-0.6c0.3,0.2,0.5,0.5,0.6,0.9c0.1,0.4,0,0.8-0.1,1.3c0,0.1,0,0.1,0,0.2
		c0,0.1,0.1,0.1,0.1,0.1c0.2,0.1,0.2,0.3,0.2,0.5s-0.1,0.4-0.3,0.7l0,0c-1.2,2.3-1.9,4-2.1,5.1s-0.2,1.8,0,2c0.3,0.5,1,0.6,2.1,0.4
		c1.1-0.2,2.7-1,4.7-2.1s4.7-2.9,8-5.2C97,45.5,97.1,45.5,97.2,45.5z M81.4,46.1c0.2-0.3,0.4-0.7,0.5-1s0.2-0.6,0.1-0.7h0
		c0,0,0,0,0,0v0c-0.3,0-1,0.3-1.9,1s-1.8,1.5-2.8,2.4c-1,0.9-1.7,1.8-2.3,2.5c0,0,0,0,0,0.1c-0.1,0.1-0.2,0.3-0.3,0.5
		c-0.1,0.2-0.2,0.4-0.2,0.5c0,0.1,0.2,0.2,0.5,0.2c0.7-0.1,1.6-0.5,2.7-1.2c1.1-0.7,2.1-1.5,3.1-2.5c0.3-0.3,0.4-0.5,0.4-0.7h0
		C81.2,46.7,81.3,46.4,81.4,46.1z"/>
	<path class="st0" d="M125.8,45.5c0,0,0.1,0,0.1,0s0.1,0,0.1,0.1c0,0,0,0.1,0,0.1s-0.1,0.2-0.3,0.3c-2.4,1.6-4.6,3.1-6.7,4.3
		c-2,1.2-3.8,2.1-5.3,2.7s-2.5,0.7-3.1,0.3c-0.5-0.3-0.7-0.9-0.8-1.5s-0.1-1.4,0.1-2.2s0.3-1.5,0.4-2.1c0-0.1,0-0.2,0-0.2
		c0,0,0,0,0,0s-0.1,0-0.1,0.1c0,0,0,0,0,0c0,0,0,0,0,0h0c-0.2,0.2-0.4,0.4-0.6,0.6c-1.1,1.2-2.2,2.2-3.1,3c-0.9,0.8-1.7,1-2.4,0.8
		c-0.4-0.2-0.6-0.9-0.4-2c0.2-1.1,0.6-2.4,1.2-4c0.6-1.5,1.3-3.1,2.1-4.6c0.1-0.1,0.1-0.2,0.1-0.2c0,0,0,0-0.1,0s-0.1,0.1-0.1,0.1
		c-1.9,1.9-3.9,4-6.3,6.1c-2.3,2.1-4.2,3.8-5.7,4.8c-0.9,0.6-1.6,0.9-2,0.8c-0.5-0.1-0.4-0.5,0-1.3c0.3-0.5,0.6-1,0.9-1.5
		c0.7-1.1,1.7-2.7,3-4.6c0.2-0.3,0.5-0.5,0.8-0.6c0.3-0.1,0.6-0.1,0.9,0c0.3,0.1,0.5,0.3,0.6,0.5s0.1,0.4-0.1,0.7
		c-0.6,0.6-1.4,1.4-2.2,2.4c-0.9,1-1.5,1.8-2,2.4c0,0.1-0.1,0.1-0.1,0.2c0,0.1,0,0.1,0,0.2c0,0,0,0.1,0.1,0s0.2-0.1,0.3-0.2
		c0.9-0.6,2.6-2.1,5-4.3c2.4-2.2,5.1-4.9,7.9-7.9c0.2-0.2,0.5-0.4,0.9-0.4s0.6,0,0.9,0.2c0.2,0.2,0.3,0.4,0.2,0.8
		c-1,1.5-1.8,2.8-2.4,3.9c-0.6,1.1-1.3,2.3-1.8,3.5s-1,2.4-1.2,3.4c0,0,0,0,0,0v0c0,0.1,0,0.1,0,0.2c0,0.1,0,0.3,0,0.4
		s0.1,0.2,0.2,0.3c0.4,0.2,1-0.1,1.9-0.9c0.8-0.8,1.7-1.8,2.5-2.8c0.7-0.8,1.2-1.4,1.7-1.9c0.5-0.5,0.9-0.8,1.1-0.7
		c0.5,0.1,0.7,0.4,0.6,0.8c0,0.4-0.1,0.8-0.3,1.3c-0.1,0.2-0.2,0.4-0.2,0.6c-0.1,0.2-0.1,0.4-0.2,0.6c-0.2,0.5-0.3,1.1-0.5,1.7
		c-0.2,0.6-0.3,1.2-0.3,1.7c0,0.5,0,0.8,0.3,1c0.2,0.2,0.8,0.1,1.8-0.1c1-0.3,2.6-0.9,4.6-2C120,49.4,122.6,47.8,125.8,45.5
		L125.8,45.5z"/>
	<path class="st0" d="M185.2,45.6c0.2-0.1,0.3-0.1,0.4,0c0.1,0.1,0,0.2,0,0.3c-0.1,0.1-0.2,0.2-0.4,0.3c-2.8,1.1-6.7,2.7-11.8,4.8
		c-5.1,2.1-10.2,4.4-15.3,6.7c-0.2,0.1-0.3,0.2-0.3,0.3s0,0.2,0.1,0.3c0.7,0.9,1.2,1.8,1.3,2.8c0.2,1,0,1.9-0.5,2.8
		c-0.3,0.6-0.9,1.2-1.7,1.9s-2,1.2-3.5,1.6s-3.5,0.7-5.8,0.8c-0.3,0-0.6,0-0.9,0c-0.7,0-1.3,0-1.9-0.1c-0.6-0.1-1.1-0.3-1.4-0.5
		s-0.6-0.6-0.6-1.1c0-0.8,0.5-1.6,1.6-2.4c1.1-0.8,3-1.9,5.5-3.3c0,0,0.1-0.1,0.1-0.1c1.5-0.8,3.1-1.6,5-2.5
		c0.3-0.1,0.4-0.3,0.4-0.4s-0.1-0.2-0.2-0.3c-0.9-0.6-2-1.3-3.3-2.1c-1.4-0.9-2.9-1.8-4.4-2.9c-1.5-1.1-2.9-2.2-4.2-3.4
		c-1.3-1.2-2.2-2.5-2.8-3.9c-0.6-1.4-0.7-2.9-0.3-4.4c0.7-2.5,2.6-5.2,5.8-8c3.2-2.8,7.7-5.8,13.6-9c7.9-4.3,14.8-6.9,20.8-7.7
		c5.8-0.7,9.3,0.4,10.8,3.1c0.4,0.8,0.5,1.8,0.2,3.2s-1.1,3.1-2.5,5.3c-1.3,2-3,4.1-5,6.1c-2.1,2-4.9,4.3-8.3,6.8
		c-3.9,2.8-7.1,4.8-9.5,6c-2.5,1.2-4.3,1.8-5.4,1.8c-1.2,0-1.7-0.4-1.7-1.2c0.1-1.5,1-3.5,2.9-6.1c1.9-2.6,4.2-5.3,7-8
		c2.8-2.7,5.5-5.1,8.2-6.9c0.3-0.2,0.6-0.3,0.9-0.3c0.3,0,0.5,0.2,0.6,0.4c0.1,0.2,0.1,0.4,0.2,0.7c0,0.3,0,0.6-0.1,0.9
		s-0.2,0.4-0.4,0.5c-1.2,0.2-2.5,0.9-4.1,2c-1.6,1.1-3.2,2.5-4.8,4c-1.6,1.5-3,3-4.2,4.3c-2,2.2-3.4,4.1-4.3,5.6
		c-0.9,1.5-1.2,2.5-0.8,3c0.3,0.3,1,0.2,2.2-0.1s2.9-1,5.1-2.2c2.2-1.2,4.9-3,8-5.4c4.1-3.2,7.3-6.1,9.5-8.6s3.6-4.6,4.2-6.4
		c0.6-1.8,0.7-3.1,0.2-4.1c-1.1-2.1-4.1-2.8-9-2.3c-2.8,0.4-5.9,1.1-9.3,2.3c-3.4,1.2-7,2.7-10.7,4.7c-5.2,2.8-9.4,5.5-12.6,8.1
		s-5.1,5-5.7,7.1c-0.4,1.6-0.3,3.1,0.3,4.4c0.6,1.3,1.5,2.5,2.8,3.6c1.2,1.1,2.6,2.2,4,3.2c0.5,0.4,1.1,0.8,1.6,1.2
		c0.1,0.1,0.3,0.2,0.7,0.5c0.7,0.4,1.5,1,2.5,1.7c1,0.7,1.9,1.4,2.7,2c0.3,0.2,0.5,0.3,0.7,0.3c0.2,0,0.4-0.1,0.6-0.2h0
		c5.3-2.4,10.5-4.7,15.8-6.8S182.6,46.5,185.2,45.6z M157.8,61.9c0.3-1-0.1-1.9-1-3c-0.3-0.3-0.7-0.4-1.1-0.1c-2.1,1-4,2-5.6,2.9
		c-2.5,1.4-4.2,2.4-5,3.2c0,0,0,0,0,0c-0.1,0.1-0.2,0.2-0.3,0.4c-0.1,0.2-0.2,0.4-0.2,0.6c0,0.2,0.1,0.4,0.3,0.6
		c0.4,0.4,1.5,0.5,3.2,0.4c2.3-0.2,4.4-0.6,6.2-1.4C156,64.8,157.2,63.6,157.8,61.9z"/>
	<path class="st0" d="M205.5,45.4c0.1,0,0.1,0,0.1,0.1c0,0.1-0.1,0.2-0.2,0.4c-3,3-5.5,5.3-7.8,6.8c-2.2,1.5-4.1,2.1-5.5,1.8
		c-0.6-0.2-1.1-0.5-1.4-1c-0.3-0.5-0.5-1.1-0.6-1.8c-0.1-0.7-0.2-1.3-0.3-1.8c-0.1-0.7-0.1-1.1-0.2-1.2c-0.5-0.2-1.3,0-2.3,0.8
		c-1.1,0.8-2.2,1.8-3.5,3s-2.4,2.4-3.5,3.5c-0.7,0.8-1.3,1.4-1.8,1.9c-0.5,0.5-0.8,0.7-0.9,0.8c0,0,0,0,0,0c-0.1,0-0.1,0-0.2,0
		s-0.2,0-0.2-0.1c-0.1-0.1-0.1-0.1-0.1-0.3c0-0.1,0.1-0.3,0.2-0.5c0.1-0.1,0.4-0.6,1.1-1.7c1.2-1.8,2.8-4.3,4.8-7.5
		c2-3.1,3.9-6,5.6-8.7c6-9.6,11.3-17.3,15.8-22.9c4.5-5.6,7.9-8.6,10.1-8.9c0.9-0.1,1.5,0.3,1.8,1.1c0.4,1.6-0.8,4.7-3.8,9.3
		s-7.4,9.8-13.3,15.9c0,0,0,0,0,0c-3.3,3.3-6.9,6.5-10.8,9.6l0,0h0c-0.3,0.3-0.9,0.8-1.7,1.7c-0.8,0.9-1.7,2-2.7,3.5
		c-0.3,0.5-0.6,0.9-0.9,1.4c-1.2,1.7-2.2,3.2-3.1,4.4c-0.1,0.1-0.2,0.3-0.3,0.4c-0.1,0.1-0.1,0.3-0.2,0.3c0,0.1,0,0.1,0.1,0.1
		c0.1,0,0.2-0.2,0.4-0.4c0.4-0.4,0.7-0.8,1.2-1.2c1-1,2.1-2.1,3.2-3.2s2.3-2,3.4-2.8c1.1-0.8,2.1-1.2,3-1.2c0.3,0,0.5,0.1,0.6,0.2
		c0.2,0.2,0.2,0.4,0.2,0.6c0,0.4,0,1.1,0,2c0,0.9,0.2,1.7,0.4,2.5c0.2,0.8,0.6,1.2,1,1.3c0.8,0.1,2.1-0.4,4.1-1.5
		c2-1.1,4.6-3.4,7.9-6.6C205.4,45.5,205.4,45.4,205.5,45.4z M188,43.5c-0.1,0.1-0.1,0.2-0.2,0.3c-0.1,0.1-0.1,0.2-0.1,0.2
		c0,0,0,0.1,0.1,0s0.2-0.1,0.3-0.3c4-3.3,7.6-6.5,10.9-9.7l0,0c2.7-2.8,5.3-5.7,7.5-8.7c2.3-3,4.2-5.7,5.7-8.1
		c1.4-2.3,2.2-4.2,2.5-5.5c0.3-1.3,0.2-2-0.1-1.9c-0.4,0-1.6,0.9-3.6,2.7s-4.8,4.9-8.3,9.4s-7.8,10.7-12.8,18.6
		C189.4,41.3,188.7,42.3,188,43.5L188,43.5z"/>
	<path class="st0" d="M218.1,45.5c0.1,0,0.1,0.1,0,0.2c0,0.1-0.1,0.2-0.2,0.3c-1.5,1-3.1,2.1-4.9,3.3c-1.8,1.2-3.6,2.3-5.3,3.3
		c-1.7,1-3.2,1.8-4.5,2.3s-2.1,0.6-2.5,0.3c-0.4-0.5-0.5-1.1-0.3-2c0.3-0.8,0.7-1.8,1.4-2.9c0.7-1.1,1.5-2.2,2.3-3.4
		c0.1-0.2,0.3-0.4,0.4-0.5c0.1-0.2,0.2-0.3,0.3-0.5c0.1-0.1,0.2-0.3,0.3-0.5c0.1-0.2,0.4-0.3,0.8-0.4s0.7-0.2,1.1-0.1
		s0.6,0.1,0.7,0.2c0.1,0.2,0.1,0.3,0,0.5s-0.2,0.3-0.4,0.4c-0.1,0.1-0.2,0.2-0.3,0.4c-0.1,0.1-0.2,0.2-0.3,0.3
		c-0.5,0.5-1.1,1.2-2,2.2c-0.9,1-1.6,1.9-2.3,2.9s-0.9,1.8-0.7,2.3c0.3,0.4,1.7,0,4.1-1.3c2.4-1.3,6.4-3.7,11.8-7.4
		C217.9,45.5,218,45.4,218.1,45.5z M208.4,42.5c-0.2,0-0.3-0.1-0.3-0.3c0-0.1,0.1-0.3,0.2-0.5c0.1-0.2,0.2-0.3,0.2-0.5
		c0.1-0.3,0.2-0.6,0.5-0.8s0.5-0.3,0.8-0.3c0.2,0,0.4,0,0.6,0.1s0.3,0.1,0.3,0.3c0.1,0.2,0,0.4-0.1,0.8c-0.2,0.5-0.6,0.9-1,1
		C209.2,42.5,208.8,42.5,208.4,42.5z"/>
	<path class="st0" d="M242,45.6c0.1-0.1,0.1-0.1,0.1-0.1c0,0,0.1,0,0.1,0.1c0,0,0,0.1-0.1,0.2c-4,3.3-7.3,5.7-10.1,7.2
		c-2.8,1.5-4.9,1.9-6.3,1.2c-0.9-0.5-1.5-1.3-1.6-2.6c-0.2-1.2,0.1-2.7,0.7-4.4c0.1-0.3,0.3-0.6,0.4-0.9c0.3-0.5,0.4-1,0.5-1.4
		c0-0.2,0-0.2-0.1-0.3s-0.2,0-0.3,0.1c-0.1,0.1-0.3,0.1-0.4,0.2c-1,0.7-2.3,1.7-3.8,3.2c-1.6,1.4-3,2.8-4.4,4.1
		c-1.3,1.3-2.2,2.1-2.6,2.4c-0.3,0.3-0.7,0.5-1.1,0.6c-0.4,0.1-0.6,0.1-0.8,0c-0.2-0.1-0.1-0.4,0.1-1c0-0.1,0.3-0.5,0.8-1.4
		s1.2-2,2-3.3c0.8-1.3,1.6-2.6,2.5-3.8c0.2-0.3,0.4-0.4,0.7-0.5c0.3-0.1,0.5,0,0.8,0.1c0.3,0.1,0.4,0.3,0.5,0.5
		c0.1,0.2,0,0.5-0.2,0.9c-0.3,0.4-0.8,1.1-1.7,2.1c-1.1,1.3-2.1,2.6-3.2,4c-0.1,0.2-0.2,0.3-0.3,0.4c-0.1,0.1-0.1,0.2-0.2,0.3
		c0,0.1,0,0.1,0.1,0s0.3-0.2,0.6-0.4c0.8-0.7,1.8-1.7,3-2.9c1.3-1.2,2.5-2.4,3.8-3.6c1.3-1.2,2.5-2.2,3.5-3s1.7-1.1,2.2-1
		c0.7,0.2,0.9,0.6,0.8,1.3c-0.1,0.7-0.6,1.8-1.4,3.4c-0.4,0.9-0.8,1.9-1,2.8c-0.2,1-0.2,1.8-0.1,2.5c0.1,0.7,0.5,1.1,1,1.2
		c1.3,0.2,2.8-0.1,4.4-0.9c1.6-0.7,3.3-1.7,5-3s3.4-2.5,5-3.7C241.4,46,241.7,45.8,242,45.6z"/>
	<path class="st0" d="M268.2,45.5c0.1,0,0.1,0.1,0.1,0.2c0,0.1-0.1,0.2-0.3,0.4c-1.1,0.9-2.5,1.8-4.1,2.8c-1.6,1-3.3,1.9-5,2.7
		s-3.3,1.3-4.7,1.5s-2.5,0-3.3-0.8c-0.8-0.7-1-2.1-0.7-4.1c0-0.2,0-0.3,0-0.3c-0.1,0-0.1,0-0.2,0.1c0,0,0,0,0,0
		c-0.1,0-0.1,0.1-0.2,0.1v0h0c-3.4,2.7-5.9,4.5-7.7,5.5c-1.8,1-3,1.5-3.8,1.4c-0.6,0-1-0.2-1.2-0.5c-0.5-0.6-0.5-1.4-0.1-2.4
		c0.4-1,1-2.1,1.8-3.2s1.6-2,2.4-2.7c1.2-1.1,2.2-1.9,2.9-2.3c0.8-0.4,1.4-0.6,1.8-0.5c0.4,0,0.7,0.1,0.9,0.3c0.5,0.4,0.6,1,0.4,1.8
		c-0.2,0.8-0.7,1.7-1.6,2.6c-0.2,0.3-0.5,0.4-0.8,0.5c-0.3,0.1-0.6,0-0.8-0.1c-0.2-0.2-0.3-0.4-0.3-0.7s0.1-0.6,0.4-0.8
		c0.1-0.1,0.2-0.2,0.4-0.3c0.2-0.1,0.3-0.3,0.4-0.4c0.1-0.1,0.1-0.2-0.1-0.3c-0.2-0.1-0.5,0.1-1,0.5c-0.5,0.4-1.1,0.8-1.6,1.3
		c-0.7,0.7-1.5,1.5-2.2,2.3c-0.7,0.8-1.3,1.6-1.7,2.3c-0.4,0.7-0.5,1.2-0.2,1.5c0.6,0.3,1.5,0.2,2.7-0.3c1.2-0.6,2.6-1.4,4.1-2.4
		c1.5-1.1,3-2.2,4.5-3.5c0.5-0.5,0.9-0.9,1.1-1.2c0.2-0.4,0.4-0.6,0.5-0.9c0-0.1,0-0.1,0.1-0.2c0,0,0-0.1,0-0.1c0,0,0,0,0-0.1
		c0,0,0,0,0-0.1c1.7-5.4,3.8-10.4,6.2-14.8c2.4-4.5,4.9-8.3,7.5-11.6c2.6-3.3,5-5.8,7.2-7.5c2.2-1.8,4-2.7,5.4-2.7
		c1.2,0,2,0.6,2.3,1.9c0.4,2.6-1.2,6.6-4.8,12c-1.4,2.2-3.5,4.9-6.4,8.3c-2.8,3.3-6.6,7.1-11.2,11.3l0,0c-0.9,0.8-1.9,1.6-2.8,2.5
		c0,0,0,0-0.1,0c0,0-0.1,0.1-0.1,0.1v0h0c-0.1,0.1-0.3,0.3-0.4,0.4c-0.4,0.3-0.8,0.8-1.2,1.4c-0.4,0.6-0.7,1.4-0.8,2.3
		c-0.1,1.6,0.1,2.6,0.9,3.1c0.7,0.5,1.8,0.6,3,0.3c1.3-0.3,2.7-0.8,4.2-1.5s3-1.6,4.4-2.5s2.7-1.7,3.7-2.4
		C268,45.5,268.1,45.5,268.2,45.5z M252.9,44c-0.1,0.2-0.1,0.4,0,0.4c0,0,0.1,0,0.2,0c0.1-0.1,0.2-0.2,0.3-0.2
		c1.3-1.2,2.3-2.1,2.9-2.6c0.2-0.2,0.3-0.3,0.4-0.3c4.5-4.1,8.1-7.8,10.9-11.1s4.8-6,6.1-8.1c1.7-2.6,2.9-5,3.5-6.9
		c0.6-2,0.8-3.3,0.7-4c0-0.2-0.1-0.3-0.2-0.4c-0.1-0.1-0.1-0.1-0.2-0.2c-0.1,0-0.1,0-0.2,0c-3,1.2-5.8,3.2-8.4,6s-5.1,6-7.2,9.5
		c-2.2,3.5-4,6.9-5.5,10.2C254.6,39.4,253.6,42,252.9,44z"/>
	<path class="st0" d="M285.2,45.5c0,0,0,0.1,0,0.1c0,0.1-0.1,0.1-0.2,0.2h0v0c-3.4,2.1-6.7,3.8-9.7,5.1c-3.1,1.3-5.4,1.8-7.1,1.7
		c-1.1-0.1-1.8-0.4-2.3-1.1c-0.5-1-0.4-2.2,0.4-3.7c0.2-0.4,0.4-0.8,0.7-1.2c0.2-0.3,0.4-0.6,0.6-0.8c0.9-1.1,1.7-1.8,2.3-2.3
		c0.1-0.1,0.1-0.1,0.1-0.1c0,0,0,0,0,0c0.4-0.3,0.8-0.6,1.2-0.9c2.8-2,4.8-2.8,6-2.3c0.3,0.1,0.5,0.3,0.7,0.6c0.2,0.3,0.2,0.6,0.1,1
		c-0.2,0.5-0.5,0.9-1.1,1.3c-0.6,0.4-1.2,0.7-2,1c-1.6,0.6-3.2,1.1-4.6,1.4c-0.2,0-0.4,0.1-0.7,0.3c-0.3,0.2-0.7,0.4-1,0.8l0,0
		c0,0-0.1,0.1-0.1,0.1c-0.8,0.9-1.3,1.8-1.5,2.9c0,0.7,0.3,1.3,0.8,1.6s1.2,0.5,2,0.5c1.5,0,3.6-0.6,6.2-1.7s5.7-2.6,9.1-4.6
		C285,45.5,285.1,45.5,285.2,45.5z M270.4,44.9c-0.1,0.1-0.2,0.1-0.2,0.2c0,0.1,0,0.1,0.2,0c0.7-0.2,1.6-0.4,2.6-0.8
		c0.7-0.2,1.3-0.5,1.8-0.8c0.5-0.3,0.7-0.5,0.6-0.7v0l0,0v0c-0.1-0.1-0.3-0.2-0.6-0.2c-0.2,0-0.5,0.1-0.8,0.2h0v0c0,0-0.1,0-0.1,0h0
		h0c-0.4,0.1-0.8,0.3-1.2,0.6C271.9,43.9,271.2,44.3,270.4,44.9z"/>
</g>
</svg>
